<?xml version="1.0" encoding="UTF-8" standalone="no"?>
<svg
   xmlns:dc="http://purl.org/dc/elements/1.1/"
   xmlns:cc="http://creativecommons.org/ns#"
   xmlns:rdf="http://www.w3.org/1999/02/22-rdf-syntax-ns#"
   xmlns:svg="http://www.w3.org/2000/svg"
   xmlns="http://www.w3.org/2000/svg"
   xmlns:sodipodi="http://sodipodi.sourceforge.net/DTD/sodipodi-0.dtd"
   xmlns:inkscape="http://www.inkscape.org/namespaces/inkscape"
   inkscape:version="1.0rc1 (09960d6, 2020-04-09)"
   sodipodi:docname="BCCPC_logo_ColourCMYK300.svg"
   viewBox="0 0 368.23337 115.80517"
   height="115.80517"
   width="368.23337"
   xml:space="preserve"
   id="svg28"
   version="1.1"><metadata
     id="metadata34"><rdf:RDF><cc:Work
         rdf:about=""><dc:format>image/svg+xml</dc:format><dc:type
           rdf:resource="http://purl.org/dc/dcmitype/StillImage" /><dc:title></dc:title></cc:Work></rdf:RDF></metadata><defs
     id="defs32" /><sodipodi:namedview
     fit-margin-bottom="0"
     fit-margin-right="0"
     fit-margin-left="0"
     fit-margin-top="0"
     inkscape:pagecheckerboard="true"
     inkscape:current-layer="g38"
     inkscape:window-maximized="0"
     inkscape:window-y="526"
     inkscape:window-x="1080"
     inkscape:cy="28.936397"
     inkscape:cx="240.7763"
     inkscape:zoom="2.2240566"
     showgrid="false"
     id="namedview30"
     inkscape:window-height="909"
     inkscape:window-width="1680"
     inkscape:pageshadow="2"
     inkscape:pageopacity="0"
     guidetolerance="10"
     gridtolerance="10"
     objecttolerance="10"
     borderopacity="1"
     bordercolor="#666666"
     pagecolor="#ffffff" /><g
     transform="matrix(1.3333333,0,0,-1.3333333,5.1201842e-5,115.80538)"
     inkscape:label="ink_ext_XXXXXX"
     inkscape:groupmode="layer"
     id="g36"><g
       transform="scale(0.1)"
       id="g38"><path
         inkscape:connector-curvature="0"
         id="path40"
         style="fill:#f4c046;fill-opacity:1;fill-rule:nonzero;stroke:none"
         d="m 449.465,443.281 c 1.031,-0.902 2.465,-1.203 3.781,-0.781 0,0 0,0 0.039,0.02 1.285,0.429 2.301,1.519 2.59,2.871 l 54.563,250.718 c 0.292,1.391 -0.18,2.789 -1.282,3.762 L 317.355,867.59 c -1.085,0.89 -2.484,1.199 -3.8,0.738 -1.524,-0.308 -2.285,-1.519 -2.555,-2.816 L 256.16,616.641 c -0.254,-1.379 0.203,-2.821 1.25,-3.782 L 449.465,443.281" /><path
         inkscape:connector-curvature="0"
         id="path42"
         style="fill:#19acbb;fill-opacity:1;fill-rule:nonzero;stroke:none"
         d="m 224.59,301.609 c 0.289,0.102 0.523,0.192 0.758,0.332 l 220.297,129.911 c 1.21,0.687 1.898,1.976 1.953,3.347 -0.035,1.422 -0.778,2.66 -1.953,3.379 L 224.934,568.309 c -1.235,0.722 -2.754,0.73 -3.965,0 L 1.9375,438.16 C 0.707031,437.43 -0.0195313,436.18 0,434.809 c 0,-1.391 0.667969,-2.68 1.9375,-3.368 L 221.367,301.949 c 1.012,-0.57 2.188,-0.687 3.223,-0.34" /><path
         inkscape:connector-curvature="0"
         id="path44"
         style="fill:#701d15;fill-opacity:1;fill-rule:nonzero;stroke:none"
         d="M 448.887,426.621 257.266,255.32 c -1.051,-0.941 -1.52,-2.41 -1.196,-3.75 L 312.434,3.05859 c 0.304,-1.32031 1.281,-2.417965 2.625,-2.867184 0.742,-0.269531 1.613,-0.2421873 2.367,0.019532 0.508,0.128906 0.965,0.410156 1.414,0.789062 l 190.75,168.898 c 1.031,0.954 1.539,2.411 1.23,3.75 l -55.488,250.911 c -0.309,1.371 -1.305,2.461 -2.644,2.871 -1.305,0.449 -2.75,0.129 -3.801,-0.809" /><path
         inkscape:connector-curvature="0"
         id="path46"
         style="fill:#c43629;fill-opacity:1;fill-rule:nonzero;stroke:none"
         d="M 719.426,407.301 464.98,430.918 c -1.394,0.133 -2.714,-0.496 -3.496,-1.59 -0.832,-1.117 -0.976,-2.578 -0.394,-3.848 L 563.652,191.219 c 0.618,-1.278 1.844,-2.188 3.278,-2.289 l 253.769,-22.981 c 0.528,-0.031 1.071,0.02 1.535,0.199 0.801,0.231 1.504,0.711 1.961,1.391 0.828,1.133 0.957,2.59 0.434,3.84 L 722.715,404.93 c -0.598,1.332 -1.848,2.211 -3.289,2.371" /><path
         inkscape:connector-curvature="0"
         id="path48"
         style="fill:#ee7a29;fill-opacity:1;fill-rule:nonzero;stroke:none"
         d="m 824.789,702.922 c -0.828,1.058 -2.152,1.687 -3.527,1.578 L 567.598,680.23 c -1.41,-0.16 -2.625,-1.031 -3.223,-2.359 L 462.031,442.91 c -0.613,-1.308 -0.398,-2.738 0.364,-3.898 0.867,-1.09 2.171,-1.723 3.562,-1.582 l 255.273,25.211 c 0.329,0.007 0.583,0.097 0.872,0.187 1.066,0.332 1.882,1.102 2.336,2.152 l 100.753,234.059 c 0.579,1.289 0.379,2.723 -0.402,3.883" /><path
         inkscape:connector-curvature="0"
         id="path50"
         style="fill:#ffffff;fill-opacity:1;fill-rule:nonzero;stroke:none"
         d="m 1001.29,518.02 c 34.53,0 47.55,10.289 47.55,30.91 0,23.019 -17.59,31.808 -44.54,31.808 H 967.945 V 518.02 Z m -2.731,93.621 c 18.161,0 42.401,3.937 42.401,29.39 0,23.637 -23.63,26.078 -45.44,26.078 H 967.945 V 611.641 Z M 927.027,483.77 v 217.57 h 69.071 c 60.612,0 86.662,-18.488 86.662,-55.149 0,-21.523 -10.89,-38.492 -32.69,-46.961 v -0.621 c 28.17,-9.078 40.59,-26.66 40.59,-53.019 0,-49.692 -42.42,-61.82 -89.69,-61.82 h -73.943" /><path
         inkscape:connector-curvature="0"
         id="path52"
         style="fill:#ffffff;fill-opacity:1;fill-rule:nonzero;stroke:none"
         d="m 1292.22,547.398 c -14.87,-53.32 -46.68,-67.257 -86.38,-67.257 -57.55,0 -88.17,42.121 -88.17,114.23 0,70.609 35.16,110.598 90.9,110.598 43.94,0 70.32,-19.699 80.62,-66.059 l -38.78,-7.269 c -7.6,28.488 -21.83,38.8 -42.44,38.8 -30,0 -48.48,-27.281 -48.48,-76.07 0,-53.633 16.06,-79.082 47.58,-79.082 20.89,0 37.57,11.223 45.44,41.211 l 39.71,-9.102" /><path
         inkscape:connector-curvature="0"
         id="path54"
         style="fill:#ffffff;fill-opacity:1;fill-rule:nonzero;stroke:none"
         d="m 1533.6,547.398 c -14.84,-53.32 -46.65,-67.257 -86.35,-67.257 -57.57,0 -88.18,42.121 -88.18,114.23 0,70.609 35.15,110.598 90.91,110.598 43.92,0 70.3,-19.699 80.59,-66.059 l -38.78,-7.269 c -7.56,28.488 -21.82,38.8 -42.44,38.8 -29.98,0 -48.47,-27.281 -48.47,-76.07 0,-53.633 16.07,-79.082 47.58,-79.082 20.91,0 37.57,11.223 45.44,41.211 l 39.7,-9.102" /><path
         inkscape:connector-curvature="0"
         id="path56"
         style="fill:#ffffff;fill-opacity:1;fill-rule:nonzero;stroke:none"
         d="m 1589.09,580.129 h 64.84 c 0,22.422 -11.79,36.973 -31.51,36.973 -19.7,0 -30.28,-15.75 -33.33,-36.973 z m 32.12,-99.988 c -45.75,0 -68.8,34.539 -68.8,83.32 0,50 28.5,81.508 69.73,81.508 44.82,0 67.25,-30.899 67.25,-79.379 0,-2.418 0,-5.461 -0.32,-10 H 1588.5 c 1.5,-28.192 10.91,-46.059 35.45,-46.059 16.68,0 28.19,7.571 36.97,24.547 l 27.88,-14.25 c -16.66,-29.988 -40.61,-39.687 -67.59,-39.687" /><path
         inkscape:connector-curvature="0"
         id="path58"
         style="fill:#ffffff;fill-opacity:1;fill-rule:nonzero;stroke:none"
         d="m 1812.14,483.77 v 104.242 c 0,17.566 -7.55,25.449 -21.8,25.449 -10.6,0 -21.23,-4.531 -34.82,-17.57 V 483.77 h -36.69 v 157.57 h 33.95 v -19.399 c 16.97,15.457 33.02,23.028 51.81,23.028 18.2,0 30.89,-6.957 37.88,-19.379 4.52,-7.891 6.66,-18.18 6.66,-37.578 V 483.77 h -36.99" /><path
         inkscape:connector-curvature="0"
         id="path60"
         style="fill:#ffffff;fill-opacity:1;fill-rule:nonzero;stroke:none"
         d="m 1963.1,484.07 c -8.8,-1.511 -17.89,-2.718 -27.89,-2.718 -30,0 -41.53,10.898 -41.53,46.046 v 85.461 h -23.01 v 28.481 h 23.01 v 52.422 h 36.99 V 641.34 h 32.43 v -28.481 h -32.43 v -82.73 c 0,-12.731 4.54,-18.168 15.43,-18.168 5.45,0 10.93,0.598 17,2.117 V 484.07" /><path
         inkscape:connector-curvature="0"
         id="path62"
         style="fill:#ffffff;fill-opacity:1;fill-rule:nonzero;stroke:none"
         d="m 1990.98,483.77 v 157.57 h 33.93 v -28.781 c 11.22,21.211 25.74,32.41 45.46,32.41 1.83,0 2.74,0 4.87,-0.289 v -34.551 c -2.72,0.301 -4.57,0.301 -5.78,0.301 -18.48,0 -31.8,-12.121 -41.8,-30.918 V 483.77 h -36.68" /><path
         inkscape:connector-curvature="0"
         id="path64"
         style="fill:#ffffff;fill-opacity:1;fill-rule:nonzero;stroke:none"
         d="m 2125.56,580.129 h 64.84 c 0,22.422 -11.84,36.973 -31.51,36.973 -19.69,0 -30.34,-15.75 -33.33,-36.973 z m 32.11,-99.988 c -45.77,0 -68.79,34.539 -68.79,83.32 0,50 28.49,81.508 69.69,81.508 44.85,0 67.26,-30.899 67.26,-79.379 0,-2.418 0,-5.461 -0.28,-10 h -100.62 c 1.53,-28.192 10.92,-46.059 35.47,-46.059 16.66,0 28.15,7.571 36.97,24.547 l 27.86,-14.25 c -16.67,-29.988 -40.6,-39.687 -67.56,-39.687" /><path
         inkscape:connector-curvature="0"
         id="path66"
         style="fill:#ffffff;fill-opacity:1;fill-rule:nonzero;stroke:none"
         d="m 2318.95,483.77 v 129.089 h -23.34 v 28.481 h 23.34 v 14.851 c 0,33.028 14.82,48.778 51.5,48.778 6.06,0 12.12,-0.309 18.47,-1.199 v -28.79 c -3.93,0.899 -8.76,1.508 -12.41,1.508 -12.14,0 -20.9,-3.648 -20.9,-19.398 v -15.75 h 32.69 v -28.481 h -32.69 V 483.77 h -36.66" /><path
         inkscape:connector-curvature="0"
         id="path68"
         style="fill:#ffffff;fill-opacity:1;fill-rule:nonzero;stroke:none"
         d="m 2501.43,561.949 c 0,30.61 -9.37,53.949 -32.72,53.949 -23.63,0 -33.03,-23.339 -33.03,-53.949 0,-31.519 9.98,-52.719 33.03,-52.719 22.7,0 32.72,21.2 32.72,52.719 z m -103.33,0 c 0,52.121 26.69,83.02 70.61,83.02 43.64,0 70.28,-30.899 70.28,-83.02 0,-50.91 -26.64,-81.808 -70.28,-81.808 -43.92,0 -70.61,30.898 -70.61,81.808" /><path
         inkscape:connector-curvature="0"
         id="path70"
         style="fill:#ffffff;fill-opacity:1;fill-rule:nonzero;stroke:none"
         d="m 2561.22,483.77 v 157.57 h 33.93 v -28.781 c 11.21,21.211 25.75,32.41 45.43,32.41 1.84,0 2.73,0 4.85,-0.289 v -34.551 c -2.72,0.301 -4.51,0.301 -5.74,0.301 -18.51,0 -31.83,-12.121 -41.83,-30.918 V 483.77 h -36.64" /><path
         inkscape:connector-curvature="0"
         id="path72"
         style="fill:#ffffff;fill-opacity:1;fill-rule:nonzero;stroke:none"
         d="m 1003.09,283.879 c 19.41,0 40.89,5.152 40.89,33.641 0,21.21 -14.22,31.519 -39.38,31.519 h -35.752 v -65.16 z M 927.027,166.621 v 217.57 h 74.863 c 56.34,0 83.92,-21.82 83.92,-66.671 0,-46.36 -30.89,-67.872 -84.52,-67.872 h -32.442 v -83.027 h -41.821" /><path
         inkscape:connector-curvature="0"
         id="path74"
         style="fill:#ffffff;fill-opacity:1;fill-rule:nonzero;stroke:none"
         d="m 1182.21,246.621 c -22.1,-4.551 -33.92,-7.582 -43.92,-13.031 -7.86,-4.531 -11.82,-12.43 -11.82,-22.121 0,-12.43 7.55,-19.688 19.7,-19.688 13.03,0 26.65,6.348 36.04,16.957 z m 3.95,-80 -2.72,17.57 c -15.15,-12.711 -32.42,-20.589 -51.81,-20.589 -26.4,0 -42.73,16.347 -42.73,42.718 0,20.301 8.8,33.93 26.04,43.641 15.76,8.777 40.03,14.539 68.5,19.988 1.79,21.223 -5.47,30 -25.76,30 -16.06,0 -26.67,-6.66 -35.45,-20.621 l -26.38,16.371 c 13.93,23.34 36.07,32.129 64.26,32.129 40.6,0 59.4,-17.879 59.4,-55.156 v -77.563 l 2.73,-28.488 h -36.08" /><path
         inkscape:connector-curvature="0"
         id="path76"
         style="fill:#ffffff;fill-opacity:1;fill-rule:nonzero;stroke:none"
         d="m 1248.15,166.621 v 217.57 h 36.64 v -217.57 h -36.64" /><path
         inkscape:connector-curvature="0"
         id="path78"
         style="fill:#ffffff;fill-opacity:1;fill-rule:nonzero;stroke:none"
         d="m 1324.21,166.621 v 217.57 h 36.68 v -217.57 h -36.68" /><path
         inkscape:connector-curvature="0"
         id="path80"
         style="fill:#ffffff;fill-opacity:1;fill-rule:nonzero;stroke:none"
         d="m 1400.28,166.621 v 157.57 h 36.64 v -157.57 z m -0.9,182.707 v 36.973 h 38.77 v -36.973 h -38.77" /><path
         inkscape:connector-curvature="0"
         id="path82"
         style="fill:#ffffff;fill-opacity:1;fill-rule:nonzero;stroke:none"
         d="m 1558.79,246.621 c -22.13,-4.551 -33.97,-7.582 -43.95,-13.031 -7.89,-4.531 -11.83,-12.43 -11.83,-22.121 0,-12.43 7.59,-19.688 19.7,-19.688 13.03,0 26.68,6.348 36.08,16.957 z m 3.92,-80 -2.73,17.57 c -15.15,-12.711 -32.42,-20.589 -51.8,-20.589 -26.39,0 -42.74,16.347 -42.74,42.718 0,20.301 8.78,33.93 26.05,43.641 15.78,8.777 39.99,14.539 68.49,19.988 1.82,21.223 -5.45,30 -25.76,30 -16.08,0 -26.67,-6.66 -35.43,-20.621 l -26.38,16.371 c 13.93,23.34 36.05,32.129 64.25,32.129 40.6,0 59.38,-17.879 59.38,-55.156 v -77.563 l 2.72,-28.488 h -36.05" /><path
         inkscape:connector-curvature="0"
         id="path84"
         style="fill:#ffffff;fill-opacity:1;fill-rule:nonzero;stroke:none"
         d="m 1710.62,166.93 c -8.78,-1.5 -17.9,-2.731 -27.89,-2.731 -30,0 -41.49,10.922 -41.49,46.051 v 85.449 h -23.05 v 28.492 h 23.05 v 52.418 h 36.93 v -52.418 h 32.45 v -28.492 h -32.45 v -82.711 c 0,-12.726 4.56,-18.187 15.48,-18.187 5.47,0 10.92,0.621 16.97,2.121 V 166.93" /><path
         inkscape:connector-curvature="0"
         id="path86"
         style="fill:#ffffff;fill-opacity:1;fill-rule:nonzero;stroke:none"
         d="m 1738.53,166.621 v 157.57 h 36.67 v -157.57 z m -0.92,182.707 v 36.973 h 38.8 v -36.973 h -38.8" /><path
         inkscape:connector-curvature="0"
         id="path88"
         style="fill:#ffffff;fill-opacity:1;fill-rule:nonzero;stroke:none"
         d="m 1846.42,166.621 -52.46,157.57 h 40.33 l 31.8,-111.5 h 0.6 l 34.55,111.5 h 39.38 l -54.54,-157.57 h -39.66" /><path
         inkscape:connector-curvature="0"
         id="path90"
         style="fill:#ffffff;fill-opacity:1;fill-rule:nonzero;stroke:none"
         d="m 1986.11,262.98 h 64.85 c 0,22.418 -11.82,36.969 -31.5,36.969 -19.69,0 -30.35,-15.769 -33.35,-36.969 z m 32.12,-100 c -45.77,0 -68.78,34.551 -68.78,83.34 0,50 28.48,81.508 69.68,81.508 44.86,0 67.27,-30.906 67.27,-79.387 0,-2.421 0,-5.453 -0.3,-10 h -100.58 c 1.51,-28.191 10.91,-46.05 35.45,-46.05 16.65,0 28.16,7.57 36.96,24.539 l 27.86,-14.239 c -16.67,-30.011 -40.58,-39.711 -67.56,-39.711" /><path
         inkscape:connector-curvature="0"
         id="path92"
         style="fill:#ffffff;fill-opacity:1;fill-rule:nonzero;stroke:none"
         d="m 2352.51,230.25 c -14.86,-53.328 -46.67,-67.27 -86.34,-67.27 -57.59,0 -88.2,42.129 -88.2,114.25 0,70.59 35.16,110.598 90.9,110.598 43.92,0 70.32,-19.699 80.6,-66.058 l -38.76,-7.282 c -7.6,28.481 -21.85,38.782 -42.46,38.782 -30,0 -48.46,-27.27 -48.46,-76.04 0,-53.628 16.04,-79.101 47.57,-79.101 20.9,0 37.57,11.23 45.43,41.223 l 39.72,-9.102" /><path
         inkscape:connector-curvature="0"
         id="path94"
         style="fill:#ffffff;fill-opacity:1;fill-rule:nonzero;stroke:none"
         d="m 2462.84,246.621 c -22.11,-4.551 -33.92,-7.582 -43.92,-13.031 -7.89,-4.531 -11.82,-12.43 -11.82,-22.121 0,-12.43 7.58,-19.688 19.72,-19.688 12.99,0 26.63,6.348 36.02,16.957 z m 3.95,-80 -2.72,17.57 c -15.17,-12.711 -32.42,-20.589 -51.81,-20.589 -26.38,0 -42.73,16.347 -42.73,42.718 0,20.301 8.78,33.93 26.04,43.641 15.77,8.777 40.01,14.539 68.5,19.988 1.81,21.223 -5.47,30 -25.76,30 -16.06,0 -26.69,-6.66 -35.45,-20.621 l -26.38,16.371 c 13.96,23.34 36.09,32.129 64.25,32.129 40.62,0 59.39,-17.879 59.39,-55.156 v -77.563 l 2.73,-28.488 h -36.06" /><path
         inkscape:connector-curvature="0"
         id="path96"
         style="fill:#ffffff;fill-opacity:1;fill-rule:nonzero;stroke:none"
         d="m 2532.98,166.621 v 157.57 h 33.92 v -28.793 c 11.2,21.223 25.75,32.43 45.45,32.43 1.83,0 2.72,0 4.83,-0.308 v -34.54 c -2.72,0.309 -4.52,0.309 -5.73,0.309 -18.51,0 -31.83,-12.129 -41.83,-30.898 v -95.77 h -36.64" /><path
         inkscape:connector-curvature="0"
         id="path98"
         style="fill:#ffffff;fill-opacity:1;fill-rule:nonzero;stroke:none"
         d="m 2661.46,262.98 h 64.84 c 0,22.418 -11.81,36.969 -31.51,36.969 -19.69,0 -30.32,-15.769 -33.33,-36.969 z m 32.1,-100 c -45.73,0 -68.76,34.551 -68.76,83.34 0,50 28.48,81.508 69.69,81.508 44.85,0 67.26,-30.906 67.26,-79.387 0,-2.421 0,-5.453 -0.31,-10 h -100.57 c 1.48,-28.191 10.88,-46.05 35.41,-46.05 16.68,0 28.21,7.57 37.01,24.539 l 27.86,-14.239 c -16.68,-30.011 -40.61,-39.711 -67.59,-39.711" /></g></g></svg>
